<svg width="681" height="720" viewBox="0 0 681 720" fill="none" xmlns="http://www.w3.org/2000/svg">
<g clip-path="url(#clip0_1_4)">
<mask id="mask0_1_4" style="mask-type:luminance" maskUnits="userSpaceOnUse" x="0" y="0" width="685" height="720">
<path d="M685 0H0.141968V720H685V0Z" fill="white"/>
</mask>
<g mask="url(#mask0_1_4)">
<path fill-rule="evenodd" clip-rule="evenodd" d="M333.621 641.695C243.975 642.844 144.052 623.492 95.6795 547.199C48.8116 473.279 89.0643 381.299 115.502 297.677C140.493 218.626 164.841 133.327 238.269 96.1804C317.017 56.3431 412.561 64.6214 489.081 108.687C564.394 152.057 612.742 231.267 623.737 318.159C634.188 400.763 599.167 479.751 543.838 541.454C489.099 602.499 415.134 640.65 333.621 641.695Z" fill="#798A94"/>
<mask id="mask1_1_4" style="mask-type:luminance" maskUnits="userSpaceOnUse" x="61" y="17" width="626" height="703">
<path d="M686.025 17H61.6562V720H686.025V17Z" fill="white"/>
</mask>
<g mask="url(#mask1_1_4)">
<path d="M443.738 469.008C488.097 464.061 560.861 477.541 498.573 562.921C436.744 647.673 424.773 700.963 457.969 690.478C458.207 690.391 458.457 690.31 458.714 690.234C458.463 690.319 458.215 690.4 457.969 690.478C448.741 693.841 452.961 705.978 448.194 710.9C411.245 716.63 410.558 668.192 493.082 561.929C512.943 533.677 526.208 478.665 447.906 481.628L443.738 469.008Z" fill="#FFD500"/>
<path d="M438.778 452.945C488.9 441.778 543.578 437.389 487.87 538.571C432.732 638.716 491.22 631.224 528.401 614.581C528.753 614.403 529.135 614.23 529.549 614.061C529.169 614.235 528.786 614.409 528.401 614.581C519.246 619.194 530.335 626.522 525.826 632.437C484.377 643.493 417.456 640.124 481.364 538.205C498.936 504.821 532.3 451.05 442.744 464.474L438.778 452.945Z" fill="#005BBB"/>
<path d="M190.293 198.55C197.659 197.842 202.706 188.114 201.565 176.822C200.423 165.53 193.526 156.951 186.159 157.66C178.792 158.368 173.745 168.096 174.887 179.388C176.028 190.68 182.926 199.259 190.293 198.55Z" fill="#0D070C"/>
<path d="M333.013 157.549C326.27 160.528 316.913 154.564 312.113 144.229C307.313 133.893 308.889 123.1 315.632 120.12C322.375 117.141 331.732 123.105 336.532 133.44C341.332 143.776 339.757 154.569 333.013 157.549Z" fill="#0D070C"/>
<path fill-rule="evenodd" clip-rule="evenodd" d="M237.965 88.3393C212.462 95.3269 166.18 119.282 185.076 159.202C197.743 185.963 191.121 198.024 183.963 211.061C177.772 222.333 171.182 234.336 176.316 257.204C180.977 277.974 190.674 290.826 200.352 303.653C213.651 321.28 226.915 338.861 227.033 376.881C227.197 429.431 266.8 568.545 286.582 631.534L380.447 607.001L237.965 88.3393ZM238.213 89.2414C263.881 82.8551 316.243 81.0295 320.343 124.817C323.077 154.024 338.878 162.473 355.407 171.311C369.852 179.034 384.853 187.055 392.171 209.49C399.018 230.479 394.165 245.967 389.3 261.493C383.016 281.551 376.71 301.671 395.592 333.794C422.389 379.384 459.404 519.175 474.561 583.371L380.695 607.903L238.213 89.2414Z" fill="white"/>
<path d="M240.109 305.943C226.481 317.248 202.198 311.234 185.872 292.511C169.546 273.788 167.359 249.444 180.987 238.139C194.615 226.834 218.898 232.847 235.224 251.571C251.55 270.294 253.737 294.637 240.109 305.943Z" fill="url(#paint0_radial_1_4)"/>
<path d="M348.151 277.179C331.112 271.86 323.527 248.57 331.209 225.161C338.892 201.751 358.932 187.087 375.971 192.407C393.01 197.726 400.595 221.016 392.912 244.425C385.23 267.835 365.19 282.499 348.151 277.179Z" fill="url(#paint1_radial_1_4)"/>
<path d="M446.843 476.832C386.832 523.231 294.971 536.157 257.161 530.628L263.577 552.252C350.562 570.362 425.577 523.429 453.178 498.278L446.843 476.832Z" fill="#005BBB"/>
<path d="M453.178 497.551C382.262 556.319 301.238 557.043 263.317 551.943L268.713 568.794C356.057 585.914 432.429 547.002 459.513 521.541L453.178 497.551Z" fill="#FFD500"/>
<path opacity="0.5" d="M320.252 141.548C323.529 142.057 326.851 138.398 327.671 133.375C328.491 128.352 326.5 123.867 323.222 123.358C319.945 122.849 316.623 126.508 315.803 131.531C314.983 136.554 316.975 141.039 320.252 141.548Z" fill="white"/>
<path opacity="0.5" d="M183.859 179.35C187.136 179.859 190.457 176.2 191.278 171.177C192.098 166.154 190.106 161.669 186.829 161.16C183.552 160.651 180.23 164.31 179.41 169.333C178.59 174.356 180.581 178.841 183.859 179.35Z" fill="white"/>
<path d="M363.971 567.081C199.7 598.273 234.921 815.428 273.065 920.107C465.188 981.407 823.718 1043.82 720.854 803.076C617.991 562.331 482.787 534.272 428.044 550.335L363.971 567.081Z" fill="white"/>
<path d="M214.087 205.277C193.881 143.269 252.746 116.651 252.698 117.495C319.238 117.495 328.521 173.069 328.521 181.653C328.521 205.277 371.524 214.921 366.584 240.83C361.644 266.739 374.939 314.539 374.859 350.331C374.811 372.265 368.3 381.97 362.771 385.453C364.393 385.044 363.739 385.302 362.142 385.825C360.687 386.631 359.323 387.009 358.191 387.074C359.662 386.619 361.102 386.166 362.142 385.825C362.35 385.71 362.56 385.586 362.771 385.453C360.639 385.99 354.573 387.677 341.545 391.425C304.801 401.995 289.48 355.243 242.707 309.46C195.934 263.677 239.344 282.786 214.087 205.277Z" fill="#FF6B0A"/>
<path d="M335.226 368.423C304.94 373.632 277.781 312.056 267.988 280.617C285.102 271.955 323.026 256.178 337.81 262.369C356.29 270.107 373.085 361.913 335.226 368.423Z" fill="#1F0C02"/>
<path d="M339.007 358.734C359.029 350.795 340.343 308.273 328.498 288.005L288.269 298.519C296.84 321.899 318.985 366.674 339.007 358.734Z" fill="#724B3B"/>
<path d="M332.366 343.505C335.823 339.405 317.552 297.271 307.985 276.717L299.399 279.948C308.948 302.842 328.909 347.604 332.366 343.505Z" fill="#6B3B28"/>
<path d="M249.275 259.404C257.853 212.691 239.881 192.735 229.824 188.596C249.895 140.425 292.132 154.426 310.743 167.447C298.312 214.201 306.961 177.136 339.443 235.839C365.428 282.801 336.17 308.719 318.294 315.808C291.715 316.471 240.699 306.118 249.275 259.404Z" fill="#ED5E00"/>
<path d="M347.719 256.111C283.124 205.705 260.788 260.784 257.694 294.624C265.479 306.124 288.736 326.439 319.485 315.696C350.234 304.953 351.119 271.496 347.719 256.111Z" fill="#FF8E3D"/>
<path d="M292.702 262.014C290.716 256.804 286.144 247.402 283.759 251.473C281.374 255.544 288.728 260.196 292.702 262.014Z" fill="#FD7411"/>
<path d="M303.131 259.307C301.312 254.039 298.794 243.927 303.276 245.625C307.756 247.323 305.046 255.454 303.131 259.307Z" fill="#FD7411"/>
<path d="M262.518 41.0159L279.288 85.7244C260.208 116.548 210.222 120.134 187.615 118.074L171.218 72.2755L262.518 41.0159Z" fill="#373500"/>
<path d="M279.288 85.7241C280.158 112.016 261.848 153.187 187.615 117.711L279.288 85.7241Z" fill="#373500"/>
<path d="M219.704 64.3276C245.006 55.8148 264.297 45.4652 262.793 41.2111C261.289 36.957 239.558 40.4094 214.256 48.9222C188.953 57.435 169.662 67.7846 171.166 72.0387C172.67 76.2928 194.401 72.8404 219.704 64.3276Z" fill="#373500"/>
<path d="M262.518 41.0159L279.288 85.7244C260.208 116.548 210.222 120.134 187.615 118.074L171.218 72.2755C171.218 72.2755 179.103 71.3111 183.888 69.7311C189.621 67.8379 197.676 62.8249 197.676 62.8249L237.178 94.0845V47.5586C237.178 47.5586 245.772 48.9458 250.966 47.5586C255.998 46.2146 262.518 41.0159 262.518 41.0159Z" fill="#4B4800"/>
<path d="M209.88 61.3971C210.166 61.4485 210.402 61.4771 210.623 61.5434C212.466 62.0396 213.822 62.9838 214.852 64.7334C215.288 65.4746 215.651 66.2814 216.039 67.0451C216.381 67.7222 216.718 68.3861 217.072 69.0577C217.165 69.2307 217.171 69.3209 216.992 69.437C216.602 69.6673 216.338 70.0406 216.336 70.5535C216.326 71.0082 216.526 71.3487 216.861 71.5636C217.2 71.7916 217.571 71.7718 217.933 71.6166C218.111 71.5325 218.2 71.3974 218.225 71.1682C218.444 69.4195 218.312 67.7113 217.88 66.0213C217.517 64.6245 216.916 63.34 216.368 62.0462C216.059 61.3071 215.769 60.5437 215.436 59.8158C215.231 59.3532 215.074 58.9001 215.005 58.3889C214.937 57.8777 214.967 57.3667 215.119 56.8447C215.564 57.0542 215.926 57.38 216.184 57.8015C216.421 58.2022 216.62 58.6516 216.797 59.0804C216.989 59.5486 217.122 60.045 217.285 60.5113C217.715 61.7522 218.133 62.9988 218.598 64.2229C219.387 66.2575 220.576 67.9473 222.182 69.2547C222.391 69.4355 222.582 69.4228 222.798 69.2898C223.348 68.9679 223.591 68.2789 223.367 67.6865C223.156 67.1337 222.526 66.8411 221.957 67.0785C221.75 67.1607 221.708 67.0874 221.662 66.8919C221.403 65.8805 221.128 64.8616 220.857 63.8558C220.561 62.7072 220.205 61.5866 220.218 60.3692C220.238 58.7609 220.678 57.4824 221.502 56.1464C221.564 56.0545 221.628 55.9626 221.717 55.8275C221.762 55.9459 221.792 56.0249 221.822 56.1039C223.759 61.1979 225.617 66.0812 227.555 71.1752C227.665 71.4648 227.665 71.4648 227.414 71.5826C226.475 72.0259 225.524 72.4747 224.585 72.918C224.419 72.9965 224.367 73.0829 224.401 73.284C224.659 74.8083 224.457 76.2696 223.753 77.6265C223.609 77.9117 223.509 78.2384 223.386 78.5444C222.592 78.1125 221.662 77.9921 220.904 77.4024C220.286 76.9182 219.723 76.3608 219.302 75.6591C219.201 75.5048 219.11 75.4858 218.967 75.5532C218.004 76.0076 217.052 76.4565 216.09 76.911C215.922 76.9895 215.836 76.9837 215.756 76.7731C213.808 71.6528 211.936 66.7299 209.988 61.6097C209.956 61.5945 209.935 61.5419 209.88 61.3971ZM211.817 63.2463C211.799 63.2707 211.763 63.2875 211.745 63.3119C211.78 63.4041 211.814 63.4962 211.849 63.5883C212.785 66.0498 213.646 68.3137 214.584 70.7752C214.738 71.1832 214.738 71.1832 215.119 71.0037C215.261 70.9363 215.318 70.8632 215.293 70.6884C215.251 70.1341 215.397 69.6308 215.698 69.2088C215.825 69.0249 215.804 68.8952 215.709 68.7222C215.257 67.8644 214.788 66.9991 214.371 66.1246C213.927 65.2161 213.467 64.5951 212.723 63.9679C212.426 63.7042 212.121 63.4912 211.817 63.2463ZM221.631 58.6625C221.607 58.6737 221.59 58.6661 221.566 58.6774C221.536 58.8163 221.504 58.9553 221.484 59.0886C221.321 60.0972 221.176 60.8954 221.413 61.8861C221.72 63.1381 222.052 64.3788 222.372 65.6252C222.408 65.7944 222.484 65.8828 222.661 65.9076C223.149 65.9726 223.57 66.1933 223.909 66.6074C224.066 66.7975 224.217 66.7884 224.501 66.5767C224.676 66.4475 224.545 66.3232 224.5 66.2047C223.548 63.7038 222.673 61.4003 221.716 58.8862C221.698 58.8016 221.668 58.7227 221.631 58.6625ZM218.177 72.7745C218.112 72.7894 218.036 72.8099 217.942 72.8229C217.123 72.9921 216.386 72.859 215.822 72.1156C215.741 72.014 215.674 71.9838 215.572 72.0474C215.489 72.0867 215.406 72.126 215.322 72.1652C215.203 72.2213 215.176 72.2964 215.225 72.4281C215.602 73.4153 215.982 74.4156 216.369 75.3972C216.389 75.4499 216.529 75.5235 216.577 75.501C217.225 75.2112 217.878 74.9026 218.515 74.5864C218.562 74.564 218.623 74.427 218.615 74.3687C218.472 73.8461 218.33 73.3235 218.177 72.7745ZM223.266 70.3731C223.514 70.8771 223.764 71.3493 224.006 71.8402C224.073 71.9793 224.168 71.9345 224.264 71.8896C224.87 71.6034 225.459 71.3097 226.071 71.0367C226.261 70.947 226.291 70.8399 226.204 70.6481C225.856 69.7718 225.533 68.8843 225.193 67.9892C225.037 67.5812 225.037 67.5812 224.669 67.7551C224.562 67.8056 224.467 67.8505 224.486 68.0121C224.567 68.8897 224.217 69.5522 223.635 70.0902C223.507 70.197 223.37 70.2775 223.266 70.3731ZM219.333 67.8507C219.386 69.0213 219.429 70.1656 219.268 71.3283C219.741 71.4308 220.186 71.5313 220.639 71.6131C220.701 71.6301 220.81 71.5477 220.854 71.4801C221.084 71.1237 221.278 70.7521 221.507 70.3956C221.578 70.2849 221.577 70.2078 221.472 70.1174C220.727 69.5221 220.098 68.7936 219.496 68.022C219.436 67.973 219.382 67.9053 219.333 67.8507ZM220.238 74.9847C220.45 75.6916 221.625 76.752 222.082 76.7379C222.089 76.7191 222.096 76.7004 222.096 76.7004C221.836 76.0159 221.588 75.3258 221.32 74.6601C221.3 74.6075 221.187 74.5678 221.135 74.5771C220.827 74.691 220.535 74.8445 220.238 74.9847ZM223.091 76.2929C223.477 75.7226 223.536 74.0336 223.253 73.5464C222.992 73.6698 222.705 73.8045 222.444 73.9279C222.289 74.0009 222.267 74.0891 222.327 74.2471C222.537 74.7999 222.747 75.3528 222.958 75.9056C222.991 76.0297 223.037 76.1481 223.091 76.2929ZM220.258 73.7485C220.413 73.6756 220.584 73.6102 220.729 73.5109C220.776 73.4885 220.831 73.3383 220.805 73.3044C220.512 72.7589 219.99 72.4158 219.44 72.5198C219.323 72.544 219.274 72.5984 219.296 72.7281C219.383 73.1059 219.482 73.4781 219.574 73.8691C219.613 74.0064 219.705 74.0254 219.811 73.9749C219.949 73.8944 220.103 73.8214 220.258 73.7485ZM222.446 72.7161C222.589 72.6488 222.72 72.587 222.862 72.5197C223.01 72.4655 223.068 72.3605 222.979 72.2006C222.818 71.8883 222.657 71.5761 222.485 71.2695C222.401 71.1227 222.315 71.1169 222.192 71.2369C221.795 71.5949 221.596 72.3253 221.78 72.8443C221.8 72.8969 221.918 72.9498 221.97 72.9405C222.142 72.8751 222.291 72.789 222.446 72.7161Z" fill="#FFD500"/>
<path d="M445.607 471C489.965 466.053 560.861 477.541 498.573 562.921C436.743 647.673 424.773 700.963 457.968 690.478C458.207 690.391 458.456 690.31 458.714 690.234C458.463 690.319 458.214 690.4 457.968 690.478C448.74 693.841 452.96 705.978 448.194 710.9C411.245 716.63 410.556 668.192 493.082 561.929C512.943 533.677 526.985 478.537 448.683 481.5L445.607 471Z" fill="#FFD500"/>
<path d="M440.481 455C490.603 443.833 543.578 437.389 487.87 538.571C432.732 638.716 491.22 631.224 528.4 614.581C528.753 614.403 529.135 614.23 529.55 614.061C529.169 614.235 528.786 614.409 528.4 614.581C519.246 619.194 530.335 626.522 525.825 632.437C484.377 643.493 417.456 640.124 481.364 538.205C498.935 504.821 529.164 449.5 444.069 462.5L440.481 455Z" fill="#005BBB"/>
</g>
</g>
</g>
<defs>
<radialGradient id="paint0_radial_1_4" cx="0" cy="0" r="1" gradientUnits="userSpaceOnUse" gradientTransform="translate(210.548 272.041) rotate(48.913) scale(44.9799 32.0515)">
<stop stop-color="#FFBBBB"/>
<stop offset="1" stop-color="#FFBBBB" stop-opacity="0"/>
</radialGradient>
<radialGradient id="paint1_radial_1_4" cx="0" cy="0" r="1" gradientUnits="userSpaceOnUse" gradientTransform="translate(362.061 234.793) rotate(108.169) scale(44.6106 32.3168)">
<stop stop-color="#FFBBBB"/>
<stop offset="1" stop-color="#FFBBBB" stop-opacity="0"/>
</radialGradient>
<clipPath id="clip0_1_4">
<rect width="684.858" height="720" fill="white" transform="translate(0.141968)"/>
</clipPath>
</defs>
</svg>
