<svg width="102" height="31" viewBox="0 0 102 31" fill="none" xmlns="http://www.w3.org/2000/svg">
<path fill-rule="evenodd" clip-rule="evenodd" d="M44.9527 0.104004H0V30.104H44.9527L56.7823 15.104L44.9527 0.104004ZM20.1528 13.0752C20.0829 13.0207 20.0142 12.9662 19.9457 12.9121C19.7727 12.7753 19.6024 12.6407 19.4272 12.5116C18.9493 12.1558 18.4303 11.8725 17.8349 11.7462C17.1777 11.606 16.5141 11.5552 15.8585 11.7493C14.9233 12.0249 14.2725 12.6255 13.8422 13.4618C13.485 14.1579 13.3898 14.8956 13.4835 15.6625C13.558 16.2631 13.7565 16.8206 14.1201 17.315C14.6789 18.0742 15.4409 18.5131 16.3934 18.6286C17.2507 18.7333 18.081 18.6286 18.8668 18.2621C19.1351 18.1366 19.1351 18.1343 19.1351 17.8453V17.8401C19.1351 17.7697 19.1353 17.6995 19.1355 17.6294C19.1358 17.4894 19.1361 17.3491 19.1351 17.2087C19.1349 17.1805 19.1353 17.1564 19.1356 17.1359C19.1367 17.0774 19.1371 17.0474 19.1219 17.0322C19.1058 17.0161 19.0723 17.0165 19.0034 17.0173C18.986 17.0175 18.9666 17.0177 18.9446 17.0177H16.4522C16.4299 17.0177 16.4101 17.018 16.3927 17.0182C16.3228 17.019 16.2888 17.0194 16.2726 17.0031C16.2572 16.9877 16.2579 16.9573 16.2591 16.8979C16.2595 16.8781 16.26 16.8551 16.26 16.8283C16.259 16.1815 16.2593 15.5347 16.2597 14.8879C16.2599 14.5645 16.26 14.241 16.26 13.9176C16.26 13.9059 16.2605 13.894 16.2608 13.8821C16.2615 13.858 16.2622 13.8335 16.26 13.8098C16.2553 13.7529 16.2759 13.7221 16.3395 13.7282C16.3639 13.7303 16.389 13.7296 16.4138 13.7289C16.4262 13.7286 16.4384 13.7282 16.4506 13.7282H22.7515C22.7929 13.7282 22.8277 13.7359 22.8215 13.7867C22.8186 13.8173 22.8384 13.8379 22.8586 13.8589C22.8832 13.8844 22.9084 13.9105 22.8945 13.9561C22.8824 13.9954 22.8854 14.0383 22.8885 14.0814C22.8898 14.1008 22.8913 14.1203 22.8913 14.1394L22.8912 15.2449C22.8909 16.7187 22.8907 18.1932 22.8945 19.6666C22.8945 19.7867 22.8563 19.8622 22.7627 19.9377C21.5894 20.8848 20.2703 21.547 18.7779 21.875C17.8953 22.0691 17.0015 22.123 16.0982 22.0521C15.0313 21.969 14.0169 21.7025 13.0803 21.1974C11.361 20.2703 10.2782 18.8627 9.77973 17.0254C9.56065 16.2138 9.49397 15.3868 9.56382 14.5521C9.82576 11.4567 12.0578 9.0419 15.0488 8.37041C15.9029 8.17791 16.765 8.15019 17.6349 8.20717C18.3017 8.25183 18.9573 8.35347 19.5987 8.53828C20.5592 8.81702 21.4069 9.2975 22.1784 9.9135C22.269 9.9859 22.3578 10.0583 22.4452 10.1322C22.5563 10.2246 22.5595 10.277 22.4626 10.3909C21.9769 10.9608 21.491 11.529 21.0037 12.0973C20.7607 12.3822 20.5179 12.6671 20.2734 12.9505C20.2671 12.9584 20.2609 12.9665 20.2546 12.9748C20.2277 13.0102 20.1991 13.0478 20.1528 13.0752ZM32.5528 8.18092C34.361 8.19478 36.1105 8.81542 37.579 10.1183C38.7189 11.1316 39.4174 12.3945 39.6968 13.8683C40.0079 15.5084 39.7841 17.0793 38.949 18.5438C37.9584 20.281 36.4471 21.3945 34.4753 21.8981C32.7783 22.3323 31.0954 22.2446 29.4713 21.587C27.3568 20.7292 25.99 19.1891 25.3486 17.0731C24.7755 15.1804 24.9834 13.3401 26.0089 11.6244C27.0075 9.952 28.5109 8.90474 30.4319 8.41654C31.0939 8.24868 31.7177 8.18246 32.5528 8.18092ZM32.1241 11.703C31.1319 11.7246 30.1096 12.2759 29.4698 13.4263C29.0348 14.2071 28.9332 15.0495 29.0984 15.9196C29.2285 16.6065 29.5349 17.2148 30.0429 17.7138C30.8351 18.493 31.8051 18.7995 32.9163 18.6748C34.0657 18.5469 34.9199 17.974 35.4675 16.9899C35.9327 16.1522 36.0296 15.2559 35.812 14.3334C35.4533 12.8026 34.1372 11.6984 32.1241 11.703Z" fill="#1B1D1F"/>
<path fill-rule="evenodd" clip-rule="evenodd" d="M101.735 0.104004H56.7825V30.104H101.735V0.104004ZM71.5294 8.36394V14.9076V21.4204C71.5294 21.4343 71.5297 21.4482 71.5302 21.462C71.5308 21.4896 71.5315 21.517 71.5294 21.5436C71.5231 21.6191 71.5437 21.6637 71.6326 21.6514C71.6538 21.6494 71.6749 21.65 71.6961 21.6507C71.7067 21.6511 71.7173 21.6514 71.7278 21.6514C72.1026 21.6514 72.4777 21.6516 72.8528 21.6518H72.8563C73.6065 21.6521 74.3571 21.6524 75.1077 21.6514C75.1314 21.6514 75.1523 21.6517 75.1709 21.6519C75.2432 21.6528 75.2783 21.6532 75.295 21.6363C75.3108 21.6203 75.3101 21.5887 75.3088 21.5273C75.3083 21.5066 75.3077 21.4824 75.3077 21.4543V8.38242C75.3077 8.37216 75.3074 8.36189 75.307 8.35162C75.3063 8.33109 75.3057 8.31055 75.3077 8.29002C75.3157 8.21302 75.2887 8.17298 75.203 8.18222C75.1861 8.18426 75.1685 8.18359 75.1507 8.18291L75.1446 8.18268C75.1376 8.18243 75.1307 8.18222 75.1236 8.18222C74.7449 8.18222 74.366 8.18205 73.987 8.18188C73.2287 8.18153 72.4698 8.18119 71.7119 8.18222C71.6895 8.18222 71.6698 8.18193 71.6525 8.18168C71.59 8.18077 71.5585 8.18031 71.543 8.19538C71.5274 8.21057 71.5279 8.24155 71.5288 8.30375C71.5291 8.32123 71.5294 8.34118 71.5294 8.36394ZM90.3482 8.18267H84.7124C82.8343 8.18267 80.9563 8.18267 79.0798 8.18113C79.0721 8.18113 79.0644 8.18118 79.0567 8.18125C79.0502 8.18131 79.0437 8.18139 79.0371 8.18147C79.0091 8.18181 78.9813 8.18215 78.9528 8.18113C78.8893 8.17805 78.867 8.20731 78.8718 8.26429C78.8729 8.28169 78.8725 8.2984 78.8722 8.31534C78.872 8.3239 78.8718 8.33251 78.8718 8.34129V11.4676L78.8717 11.5C78.8714 11.567 78.8713 11.6001 78.8881 11.6162C78.9045 11.6319 78.937 11.6316 79.0009 11.6311L79.0448 11.6308H82.5851C82.7007 11.6308 82.7578 11.6308 82.7861 11.6587C82.8137 11.6859 82.8137 11.7398 82.8137 11.8464V21.4855C82.8137 21.504 82.8135 21.5204 82.8132 21.535C82.8125 21.5902 82.812 21.6193 82.8266 21.6344C82.8426 21.6509 82.8769 21.6508 82.9485 21.6504L82.9836 21.6503H83.0311H86.3809C86.4875 21.6503 86.5402 21.6503 86.5664 21.6246C86.5921 21.5993 86.5921 21.5493 86.5921 21.4501V11.811C86.5921 11.7902 86.5918 11.7718 86.5915 11.7555C86.5906 11.696 86.5901 11.6648 86.6057 11.6488C86.6227 11.6314 86.6586 11.6316 86.7338 11.6321L86.781 11.6324H90.3848C90.5403 11.6324 90.5403 11.6324 90.5419 11.483V11.4368V8.37209C90.5419 8.3508 90.5421 8.33187 90.5423 8.31505C90.5432 8.24735 90.5436 8.21355 90.5266 8.19708C90.5097 8.18081 90.4759 8.18126 90.4088 8.18216C90.391 8.1824 90.3709 8.18267 90.3482 8.18267Z" fill="#1B1D1F"/>
</svg>
