<svg width="374" height="380" viewBox="0 0 374 380" fill="none" xmlns="http://www.w3.org/2000/svg">
<path fill-rule="evenodd" clip-rule="evenodd" d="M151.555 303.643C115.023 295.136 76.3132 277.236 64.0926 241.263C52.252 206.41 77.5643 172.91 96.4497 141.437C114.303 111.684 132.503 79.3183 165.952 71.5132C201.824 63.1427 239.834 76.0864 266.629 101.727C293.001 126.964 304.928 164.123 300.931 200.679C297.131 235.429 275.209 264.152 246.721 283.789C218.537 303.217 184.772 311.378 151.555 303.643Z" fill="url(#paint0_linear_5_47)"/>
<path d="M157.235 319.261C93.7343 319.261 123.128 237.155 188.261 240.73C237.996 274.819 215.735 319.261 157.235 319.261Z" fill="#F5F5F5"/>
<path d="M174.551 169.557C166.858 150.798 177.756 143.503 184.167 142.2C188.975 145.457 206.092 151.971 197.629 151.971C189.167 151.971 191.539 163.695 193.783 169.557C235.325 226.616 211.092 258.468 198.591 267.261C184.167 261.399 160.126 247.915 179.359 240.881C203.399 232.088 184.167 193.006 174.551 169.557Z" fill="url(#paint1_linear_5_47)"/>
<path d="M253.799 174.154C284.407 294.189 250.914 315.807 225.609 293.299C211.643 288.598 217.849 294.187 219.993 281.387C224.668 279.908 219.092 204.186 218.886 189.094C218.68 174 223.649 177.033 226.159 180.436C229.048 158.442 233.703 168.836 235.669 176.782C237.358 120.734 248.459 151.677 253.799 174.154Z" fill="#C4C4C4"/>
<path d="M252.558 174.926C283.166 294.962 249.673 316.58 224.368 294.072C210.403 289.371 216.608 294.959 218.752 282.159C223.427 280.68 217.851 204.959 217.645 189.866C217.439 174.774 222.408 177.805 224.919 181.208C227.808 159.214 232.462 169.609 234.429 177.555C236.117 121.507 247.218 152.449 252.558 174.926Z" fill="url(#paint2_linear_5_47)"/>
<path d="M227.288 179.6C200.017 194.878 187.359 185.966 184.438 179.6C164.527 167.571 169.146 126.514 203.235 126.514C237.323 126.514 261.377 160.502 227.288 179.6Z" fill="white"/>
<path d="M209.719 171.058L212.172 168.593C217.556 163.181 225.329 159.51 234.367 158.114C234.985 158.018 235.676 158.232 236.114 158.656L258.354 180.17C259.734 181.504 258.486 183.206 256.431 182.793L211.225 173.712C209.657 173.397 208.835 171.948 209.719 171.058Z" fill="#DF5B04"/>
<path d="M254.719 141.961H239.719V164.314H254.719V141.961Z" fill="#010101"/>
<path d="M239.719 164.314C233.644 164.314 228.719 159.311 228.719 153.138C228.719 146.965 233.644 141.961 239.719 141.961C245.794 141.961 250.719 146.965 250.719 153.138C250.719 159.311 245.794 164.314 239.719 164.314Z" fill="#010101"/>
<path d="M254.719 164.314C248.644 164.314 243.719 159.311 243.719 153.138C243.719 146.965 248.644 141.961 254.719 141.961C260.794 141.961 265.719 146.965 265.719 153.138C265.719 159.311 260.794 164.314 254.719 164.314Z" fill="#222222"/>
<path d="M254.719 161.266C250.301 161.266 246.719 157.627 246.719 153.138C246.719 148.649 250.301 145.01 254.719 145.01C259.137 145.01 262.719 148.649 262.719 153.138C262.719 157.627 259.137 161.266 254.719 161.266Z" fill="#8DCCF0"/>
<path opacity="0.29" d="M254.719 160.25C250.853 160.25 247.719 157.066 247.719 153.138C247.719 149.21 250.853 146.026 254.719 146.026C258.585 146.026 261.719 149.21 261.719 153.138C261.719 157.066 258.585 160.25 254.719 160.25Z" fill="white"/>
<path d="M259.856 153.278C258.879 154.27 256.886 153.852 255.403 152.346C253.92 150.839 253.51 148.814 254.486 147.822C255.463 146.83 257.456 147.247 258.939 148.754C260.422 150.26 260.832 152.286 259.856 153.278Z" fill="white"/>
<path d="M209.105 170.97L210.81 169.311C216.709 163.576 225.052 159.655 234.719 158.077C235.148 158.008 235.62 158.071 236.041 158.255L268.705 172.519C270.852 173.457 270.393 175.813 268.079 175.733L211.094 173.759C209.265 173.695 208.051 171.994 209.105 170.97Z" fill="#FF6B0A"/>
<path d="M226.719 142.978H211.719V165.33H226.719V142.978Z" fill="#010101"/>
<path d="M211.719 165.33C205.644 165.33 200.719 160.327 200.719 154.154C200.719 147.981 205.644 142.978 211.719 142.978C217.794 142.978 222.719 147.981 222.719 154.154C222.719 160.327 217.794 165.33 211.719 165.33Z" fill="#010101"/>
<path d="M226.719 165.33C220.644 165.33 215.719 160.327 215.719 154.154C215.719 147.981 220.644 142.978 226.719 142.978C232.794 142.978 237.719 147.981 237.719 154.154C237.719 160.327 232.794 165.33 226.719 165.33Z" fill="#222222"/>
<path d="M226.719 162.282C222.301 162.282 218.719 158.643 218.719 154.154C218.719 149.665 222.301 146.026 226.719 146.026C231.137 146.026 234.719 149.665 234.719 154.154C234.719 158.643 231.137 162.282 226.719 162.282Z" fill="#8DCCF0"/>
<path opacity="0.29" d="M226.719 161.266C222.853 161.266 219.719 158.082 219.719 154.154C219.719 150.226 222.853 147.042 226.719 147.042C230.585 147.042 233.719 150.226 233.719 154.154C233.719 158.082 230.585 161.266 226.719 161.266Z" fill="white"/>
<path d="M231.856 154.294C230.879 155.286 228.886 154.868 227.403 153.362C225.92 151.855 225.51 149.83 226.486 148.838C227.463 147.846 229.456 148.263 230.939 149.77C232.422 151.276 232.832 153.302 231.856 154.294Z" fill="white"/>
<path d="M228.631 106.321L227.837 102.068L177.801 111.709L182.105 134.773L183.864 134.434L225.593 129.086L232.142 125.132L229.15 109.1L229.396 109.086L229.359 106.317L228.631 106.321Z" fill="#0C0632"/>
<path d="M204.119 113.88C189.906 116.619 178.166 117.675 177.898 116.24C177.63 114.805 188.936 111.421 203.149 108.682C217.363 105.944 229.102 104.887 229.37 106.323C229.638 107.758 218.333 111.141 204.119 113.88Z" fill="#0C0632"/>
<path d="M232.734 125.095C249.782 126.093 265.963 148.509 194.849 136.677L232.734 125.095Z" fill="#0C0632"/>
<path d="M232.852 124.907C230.198 132.93 187.177 140.791 181.362 134.828L177.951 116.28C185.538 117.322 199.036 110.364 210.706 112.398L225.613 125.874L229.359 106.317L232.852 124.907Z" fill="#494600"/>
<path d="M203.37 109.811C189.556 112.472 178.141 113.466 177.873 112.031C177.605 110.596 188.586 107.275 202.4 104.613C216.214 101.951 227.63 100.957 227.898 102.393C228.166 103.828 217.185 107.149 203.37 109.811Z" fill="#0C0632"/>
<path d="M203.748 113.952C189.74 116.651 178.167 117.675 177.899 116.24C177.631 114.805 188.77 111.453 202.778 108.754C216.787 106.055 228.36 105.031 228.628 106.466C228.896 107.901 217.757 111.253 203.748 113.952Z" fill="#0C0632"/>
<path d="M223.132 109.292C223.056 109.389 222.991 109.465 222.939 109.548C222.495 110.223 222.317 110.884 222.447 111.677C222.501 112.014 222.596 112.347 222.671 112.676C222.739 112.967 222.805 113.252 222.868 113.544C222.883 113.62 222.904 113.647 222.99 113.628C223.169 113.58 223.347 113.609 223.479 113.754C223.599 113.879 223.624 114.033 223.576 114.191C223.529 114.355 223.409 114.456 223.257 114.517C223.18 114.546 223.118 114.533 223.051 114.475C222.535 114.045 222.138 113.523 221.838 112.92C221.593 112.42 221.449 111.883 221.287 111.357C221.194 111.059 221.088 110.759 221.004 110.456C220.949 110.266 220.882 110.092 220.772 109.928C220.662 109.764 220.522 109.628 220.341 109.524C220.257 109.712 220.228 109.91 220.256 110.104C220.285 110.286 220.339 110.471 220.394 110.644C220.454 110.832 220.541 111.011 220.61 111.19C220.795 111.665 220.985 112.14 221.154 112.62C221.432 113.424 221.497 114.248 221.334 115.083C221.316 115.195 221.253 115.247 221.152 115.272C220.899 115.34 220.647 115.216 220.565 114.983C220.488 114.766 220.609 114.501 220.846 114.402C220.931 114.366 220.925 114.332 220.89 114.264C220.71 113.903 220.534 113.535 220.36 113.172C220.158 112.761 219.981 112.341 219.664 112.001C219.246 111.552 218.781 111.318 218.183 111.179C218.14 111.171 218.097 111.164 218.035 111.152C218.051 111.199 218.062 111.229 218.073 111.261C218.779 113.263 219.456 115.183 220.162 117.185C220.202 117.299 220.202 117.299 220.309 117.259C220.714 117.112 221.124 116.964 221.529 116.816C221.601 116.79 221.639 116.799 221.68 116.866C221.991 117.372 222.428 117.727 222.994 117.906C223.112 117.945 223.227 118.008 223.343 118.059C223.479 117.706 223.736 117.403 223.82 117.016C223.887 116.7 223.919 116.379 223.869 116.057C223.861 115.985 223.884 115.953 223.946 115.93C224.361 115.78 224.771 115.631 225.186 115.479C225.258 115.453 225.283 115.426 225.254 115.344C224.544 113.331 223.862 111.396 223.153 109.383C223.159 109.369 223.152 109.349 223.132 109.292ZM223.006 110.377C223.018 110.378 223.033 110.372 223.045 110.374C223.058 110.41 223.071 110.446 223.083 110.482C223.424 111.45 223.738 112.34 224.079 113.308C224.136 113.468 224.136 113.468 223.972 113.528C223.91 113.55 223.874 113.546 223.837 113.489C223.708 113.32 223.534 113.22 223.332 113.188C223.246 113.173 223.219 113.13 223.204 113.054C223.124 112.68 223.047 112.299 222.952 111.931C222.857 111.545 222.84 111.236 222.91 110.843C222.934 110.683 222.974 110.533 223.006 110.377ZM218.789 111.928C218.799 111.924 218.802 111.918 218.812 111.914C218.858 111.945 218.903 111.974 218.943 112.006C219.252 112.244 219.502 112.428 219.683 112.777C219.909 113.22 220.124 113.667 220.345 114.112C220.377 114.171 220.376 114.217 220.327 114.276C220.193 114.436 220.119 114.62 220.12 114.836C220.12 114.935 220.071 114.976 219.929 114.999C219.841 115.013 219.85 114.94 219.834 114.893C219.487 113.911 219.168 113.004 218.82 112.017C218.803 111.987 218.793 111.956 218.789 111.928ZM223.478 114.915C223.502 114.901 223.531 114.885 223.563 114.862C223.86 114.672 224.055 114.42 224.039 114.046C224.038 113.994 224.051 113.965 224.099 113.954C224.135 113.941 224.171 113.928 224.207 113.915C224.258 113.896 224.286 113.91 224.304 113.961C224.441 114.349 224.579 114.743 224.711 115.133C224.718 115.153 224.694 115.215 224.673 115.222C224.398 115.328 224.117 115.431 223.838 115.526C223.817 115.534 223.764 115.513 223.751 115.494C223.662 115.305 223.572 115.116 223.478 114.915ZM221.285 115.714C221.337 115.928 221.381 116.135 221.432 116.344C221.447 116.402 221.406 116.417 221.365 116.432C221.103 116.527 220.845 116.615 220.586 116.716C220.504 116.745 220.467 116.724 220.445 116.645C220.328 116.295 220.201 115.951 220.077 115.599C220.02 115.439 220.02 115.439 220.179 115.381C220.225 115.363 220.266 115.349 220.301 115.4C220.501 115.672 220.78 115.758 221.098 115.741C221.165 115.734 221.228 115.717 221.285 115.714ZM221.857 113.86C222.141 114.205 222.421 114.542 222.769 114.824C222.649 114.99 222.537 115.147 222.417 115.302C222.402 115.325 222.348 115.333 222.316 115.327C222.154 115.292 221.998 115.245 221.836 115.21C221.786 115.199 221.766 115.177 221.776 115.121C221.854 114.737 221.862 114.348 221.85 113.955C221.857 113.924 221.856 113.889 221.857 113.86ZM223.406 116.139C223.522 116.401 223.43 117.041 223.284 117.17C223.277 117.167 223.27 117.163 223.27 117.163C223.175 116.895 223.075 116.627 222.988 116.361C222.98 116.341 223.005 116.296 223.024 116.284C223.148 116.227 223.278 116.185 223.406 116.139ZM222.857 117.337C222.591 117.288 222.14 116.828 222.103 116.607C222.216 116.566 222.339 116.522 222.451 116.48C222.518 116.456 222.548 116.475 222.569 116.537C222.646 116.754 222.723 116.971 222.799 117.188C222.821 117.233 222.837 117.28 222.857 117.337ZM223.083 115.795C223.016 115.82 222.946 115.851 222.876 115.864C222.856 115.873 222.8 115.846 222.8 115.828C222.75 115.589 222.824 115.34 223.021 115.21C223.064 115.184 223.093 115.185 223.12 115.227C223.189 115.359 223.254 115.494 223.326 115.631C223.349 115.681 223.326 115.713 223.279 115.729C223.216 115.747 223.149 115.771 223.083 115.795ZM222.14 116.139C222.078 116.161 222.022 116.181 221.961 116.204C221.901 116.231 221.856 116.218 221.842 116.148C221.812 116.013 221.782 115.878 221.757 115.74C221.745 115.674 221.771 115.648 221.839 115.646C222.054 115.633 222.303 115.781 222.379 115.981C222.387 116.002 222.364 116.051 222.345 116.064C222.275 116.095 222.207 116.114 222.14 116.139Z" fill="#FFD500"/>
<path d="M201.291 181.33C195.819 186.059 187.265 184.972 182.185 178.903C177.105 172.835 177.423 164.082 182.895 159.353C188.367 154.624 196.921 155.711 202.001 161.779C207.081 167.848 206.763 176.601 201.291 181.33Z" fill="url(#paint3_radial_5_47)"/>
<path d="M228.971 179.824C259.579 299.86 226.086 321.477 200.781 298.97C186.816 294.268 193.021 299.858 195.165 287.056C199.84 285.577 194.264 209.857 194.058 194.763C193.852 179.671 198.821 182.704 201.331 186.107C204.22 164.111 208.875 174.506 210.842 182.453C212.53 126.405 223.631 157.346 228.971 179.824Z" fill="#C4C4C4"/>
<path d="M227.167 180.702C257.776 300.737 224.282 322.355 198.977 299.847C185.012 295.146 191.217 300.734 193.361 287.934C198.036 286.455 192.46 210.734 192.254 195.641C192.048 180.549 197.017 183.581 199.528 186.983C202.417 164.989 207.072 175.384 209.038 183.331C210.726 127.282 221.828 158.224 227.167 180.702Z" fill="url(#paint4_linear_5_47)"/>
<path d="M309.718 267.261H88.7185V328.223H309.718V267.261Z" fill="url(#paint5_linear_5_47)"/>
<defs>
<linearGradient id="paint0_linear_5_47" x1="152.749" y1="304.589" x2="223.276" y2="74.965" gradientUnits="userSpaceOnUse">
<stop stop-color="#A5DEFF"/>
<stop offset="1" stop-color="#BDE7FF"/>
</linearGradient>
<linearGradient id="paint1_linear_5_47" x1="194.482" y1="267.261" x2="194.482" y2="267.261" gradientUnits="userSpaceOnUse">
<stop stop-color="#F4F4F4"/>
<stop offset="1" stop-color="white"/>
</linearGradient>
<linearGradient id="paint2_linear_5_47" x1="228.699" y1="297.408" x2="185.01" y2="199.004" gradientUnits="userSpaceOnUse">
<stop stop-color="#F4F4F4"/>
<stop offset="1" stop-color="white"/>
</linearGradient>
<radialGradient id="paint3_radial_5_47" cx="0" cy="0" r="1" gradientUnits="userSpaceOnUse" gradientTransform="translate(192.093 170.341) rotate(50.0685) scale(14.33 13.0935)">
<stop stop-color="#FFBBBB"/>
<stop offset="1" stop-color="#FFBBBB" stop-opacity="0"/>
</radialGradient>
<linearGradient id="paint4_linear_5_47" x1="239.341" y1="240.941" x2="189.981" y2="241.069" gradientUnits="userSpaceOnUse">
<stop stop-color="#F4F4F4"/>
<stop offset="1" stop-color="white"/>
</linearGradient>
<linearGradient id="paint5_linear_5_47" x1="199.219" y1="267.261" x2="199.219" y2="328.223" gradientUnits="userSpaceOnUse">
<stop stop-color="#FAFAFA" stop-opacity="0"/>
<stop offset="1" stop-color="white"/>
</linearGradient>
</defs>
</svg>
