<svg width="374" height="380" viewBox="0 0 374 380" fill="none" xmlns="http://www.w3.org/2000/svg">
<path fill-rule="evenodd" clip-rule="evenodd" d="M300.389 233.981C290.073 270.08 270.521 307.828 234.938 318.032C200.462 327.917 169.4 300.677 139.941 279.986C112.092 260.427 81.7276 240.372 76.0486 206.438C69.9583 170.044 84.6625 132.717 111.048 107.336C137.018 82.3558 173.736 72.5148 208.966 78.5844C242.458 84.3545 269.078 107.929 286.514 137.566C303.763 166.886 309.77 201.157 300.389 233.981Z" fill="url(#paint0_linear_5_130)"/>
<path d="M307.065 210.558C151.633 192.191 160.683 239.931 184.637 266.098C187.338 281.643 224.033 276.886 242.042 272.564C245.298 266.924 256.937 255.162 277.447 253.241C297.957 251.32 295.144 245.983 291.173 243.555C321.908 237.052 308.98 233.134 298.674 231.988C387.813 228.744 336.275 213.542 307.065 210.558Z" fill="#D9D9D9"/>
<path d="M310.967 212.422C152.488 195.834 163.193 243.851 188.355 269.933C191.59 285.571 228.716 280.319 246.875 275.739C250.004 270.012 261.455 258.011 282.23 255.819C303.004 253.629 299.977 248.283 295.867 245.884C326.883 238.948 313.626 235.158 303.12 234.131C380.839 223.114 340.734 215.068 310.967 212.422Z" fill="url(#paint1_linear_5_130)"/>
<path d="M168.577 287.543L142.306 297.498" stroke="#FF6B0A" stroke-width="3" stroke-linecap="round"/>
<path d="M130.125 303.55L141.626 296.766" stroke="#FF6B0A" stroke-width="3" stroke-linecap="round"/>
<path d="M132.839 296.746L141.612 296.174" stroke="#FF6B0A" stroke-width="3" stroke-linecap="round"/>
<path d="M134.26 307.962L142.634 296.93" stroke="#FF6B0A" stroke-width="3" stroke-linecap="round"/>
<path d="M75.7223 185.553C231.9 195.445 214.671 240.803 186.535 262.245C181.167 277.059 145.881 265.773 128.91 258.28C126.688 252.142 117.283 238.472 97.4327 232.891C77.582 227.31 81.2811 222.564 85.612 220.889C56.4961 208.957 69.9029 207.428 80.2458 208.155C-6.91846 188.922 46.4543 183.234 75.7223 185.553Z" fill="#D9D9D9"/>
<path d="M71.1873 188.774C230.052 200.965 211.148 246.296 181.837 267.438C175.927 282.247 140.303 270.397 123.23 262.623C121.149 256.423 111.97 242.551 91.9062 236.657C71.8423 230.762 75.753 226.046 80.2163 224.425C50.899 212.016 64.6072 210.671 75.1259 211.55C0.556377 186.723 41.4295 186.021 71.1873 188.774Z" fill="url(#paint2_linear_5_130)"/>
<path d="M238.278 244.894C231.559 276.728 186.361 324.957 59.3242 263.202C120.253 236.781 241.344 196.13 238.278 244.894Z" fill="url(#paint3_linear_5_130)"/>
<path d="M187.249 161.555C181.204 146.812 189.768 141.08 194.806 140.055C198.585 142.615 212.036 147.734 205.386 147.734C198.736 147.734 200.6 156.948 202.363 161.555C235.01 206.396 215.966 231.427 206.142 238.338C194.806 233.732 175.914 223.135 191.028 217.607C209.92 210.696 194.806 179.983 187.249 161.555Z" fill="white"/>
<path d="M140.126 286.635C141.745 292.481 161.133 292.053 183.43 285.68C205.727 279.306 222.49 269.401 220.872 263.554C219.253 257.708 199.865 258.136 177.568 264.509C155.271 270.883 138.508 280.789 140.126 286.635Z" fill="url(#paint4_radial_5_130)"/>
<path d="M153.136 285.509L125.706 291.413" stroke="#FF6B0A" stroke-width="3" stroke-linecap="round"/>
<path d="M113.038 296.902L125.236 291.523" stroke="#FF6B0A" stroke-width="3" stroke-linecap="round"/>
<path d="M116.512 290.464L125.291 290.934" stroke="#FF6B0A" stroke-width="3" stroke-linecap="round"/>
<path d="M116.64 301.773L126.219 291.805" stroke="#FF6B0A" stroke-width="3" stroke-linecap="round"/>
<path d="M228.694 169.448C207.263 181.454 197.315 174.451 195.02 169.448C179.372 159.994 183.002 127.728 209.791 127.728C236.581 127.728 255.484 154.439 228.694 169.448Z" fill="white"/>
<path d="M214.013 160.637L217.425 158.405C223.554 154.395 230.941 152.871 238.123 154.135C238.529 154.207 238.855 154.515 238.954 154.921L246.005 183.935C246.461 185.811 244.325 187.214 242.829 186.021L213.906 162.969C213.143 162.362 213.198 161.171 214.013 160.637Z" fill="#DF5B04"/>
<path d="M213.404 160.472L216.201 158.704C222.795 154.537 230.649 152.934 238.315 154.189C238.615 154.238 238.883 154.406 239.062 154.655L256.719 179.339C257.934 181.036 256.127 183.263 254.256 182.376L213.558 163.082C212.505 162.582 212.417 161.095 213.404 160.472Z" fill="#FF6B0A"/>
<path d="M238.082 149.605C236.561 149.605 235.328 148.353 235.328 146.807C235.328 145.262 236.561 144.009 238.082 144.009C239.603 144.009 240.836 145.262 240.836 146.807C240.836 148.353 239.603 149.605 238.082 149.605Z" fill="#797979"/>
<path d="M209.791 152.403C208.27 152.403 207.037 151.151 207.037 149.605C207.037 148.06 208.27 146.807 209.791 146.807C211.312 146.807 212.545 148.06 212.545 149.605C212.545 151.151 211.312 152.403 209.791 152.403Z" fill="#797979"/>
<path d="M229.749 111.859L229.125 108.516L189.803 116.093L193.186 134.219L194.568 133.952L227.362 129.75L232.508 126.643L230.157 114.043L230.35 114.033L230.321 111.855L229.749 111.859Z" fill="#0C0632"/>
<path d="M210.486 117.8C199.316 119.952 190.09 120.782 189.88 119.654C189.669 118.526 198.554 115.867 209.724 113.715C220.894 111.563 230.12 110.732 230.33 111.86C230.541 112.988 221.656 115.647 210.486 117.8Z" fill="#0C0632"/>
<path d="M232.973 126.613C246.371 127.398 259.088 145.014 203.201 135.716L232.973 126.613Z" fill="#0C0632"/>
<path d="M233.066 126.466C230.981 132.77 197.172 138.948 192.602 134.262L189.921 119.686C195.884 120.505 206.491 115.036 215.663 116.635L227.378 127.225L230.322 111.855L233.066 126.466Z" fill="#494600"/>
<path d="M209.898 114.601C199.041 116.693 190.07 117.474 189.86 116.346C189.649 115.218 198.279 112.608 209.135 110.517C219.991 108.425 228.963 107.644 229.173 108.772C229.384 109.899 220.754 112.51 209.898 114.601Z" fill="#0C0632"/>
<path d="M210.194 117.856C199.185 119.977 190.09 120.782 189.879 119.654C189.669 118.526 198.423 115.893 209.432 113.771C220.441 111.65 229.536 110.845 229.746 111.973C229.957 113.101 221.203 115.735 210.194 117.856Z" fill="#0C0632"/>
<path d="M225.427 114.193C225.368 114.27 225.317 114.33 225.276 114.395C224.927 114.927 224.787 115.445 224.889 116.069C224.932 116.333 225.006 116.595 225.065 116.853C225.119 117.082 225.171 117.306 225.22 117.536C225.232 117.596 225.248 117.617 225.316 117.602C225.457 117.564 225.597 117.587 225.7 117.7C225.794 117.799 225.814 117.921 225.776 118.045C225.739 118.173 225.645 118.253 225.526 118.301C225.465 118.323 225.416 118.313 225.364 118.267C224.959 117.929 224.646 117.52 224.411 117.046C224.218 116.653 224.105 116.23 223.978 115.818C223.904 115.583 223.821 115.347 223.756 115.11C223.712 114.96 223.659 114.823 223.573 114.694C223.486 114.565 223.376 114.458 223.234 114.377C223.168 114.525 223.145 114.68 223.167 114.832C223.19 114.975 223.232 115.121 223.276 115.256C223.323 115.404 223.391 115.544 223.445 115.686C223.591 116.06 223.74 116.431 223.873 116.81C224.092 117.441 224.142 118.089 224.015 118.745C224 118.833 223.951 118.874 223.872 118.893C223.673 118.947 223.475 118.85 223.41 118.667C223.35 118.496 223.444 118.288 223.631 118.21C223.698 118.181 223.693 118.156 223.665 118.102C223.524 117.818 223.386 117.529 223.249 117.243C223.09 116.92 222.951 116.591 222.702 116.323C222.373 115.97 222.009 115.786 221.539 115.677C221.505 115.671 221.471 115.665 221.422 115.656C221.435 115.693 221.443 115.717 221.452 115.742C222.007 117.314 222.538 118.823 223.093 120.397C223.125 120.486 223.125 120.486 223.209 120.456C223.527 120.34 223.85 120.223 224.168 120.107C224.224 120.087 224.254 120.094 224.286 120.147C224.531 120.544 224.874 120.823 225.319 120.964C225.412 120.994 225.502 121.044 225.593 121.084C225.7 120.806 225.902 120.568 225.968 120.264C226.021 120.015 226.046 119.763 226.007 119.511C226 119.454 226.019 119.429 226.067 119.411C226.393 119.293 226.716 119.176 227.042 119.057C227.098 119.037 227.118 119.015 227.095 118.95C226.537 117.368 226.001 115.847 225.444 114.265C225.449 114.254 225.443 114.238 225.427 114.193ZM225.328 115.047C225.338 115.048 225.35 115.043 225.359 115.044C225.369 115.073 225.379 115.101 225.389 115.13C225.657 115.89 225.904 116.59 226.172 117.35C226.216 117.476 226.216 117.476 226.088 117.523C226.039 117.541 226.011 117.537 225.981 117.492C225.88 117.36 225.743 117.281 225.585 117.256C225.517 117.244 225.496 117.211 225.484 117.151C225.421 116.857 225.361 116.557 225.286 116.268C225.211 115.965 225.198 115.722 225.253 115.413C225.272 115.287 225.304 115.169 225.328 115.047ZM222.014 116.266C222.022 116.263 222.025 116.258 222.033 116.255C222.068 116.278 222.104 116.302 222.136 116.328C222.379 116.514 222.575 116.658 222.717 116.932C222.894 117.281 223.064 117.632 223.237 117.982C223.262 118.028 223.262 118.065 223.223 118.111C223.118 118.237 223.06 118.381 223.06 118.551C223.061 118.629 223.022 118.662 222.91 118.679C222.841 118.69 222.848 118.633 222.835 118.597C222.563 117.823 222.312 117.112 222.038 116.335C222.026 116.313 222.017 116.288 222.014 116.266ZM225.7 118.614C225.718 118.603 225.741 118.589 225.766 118.571C226 118.422 226.153 118.224 226.14 117.93C226.139 117.889 226.15 117.867 226.188 117.858C226.216 117.848 226.244 117.838 226.272 117.827C226.312 117.812 226.334 117.823 226.349 117.864C226.456 118.169 226.565 118.478 226.668 118.785C226.674 118.801 226.655 118.849 226.639 118.855C226.423 118.938 226.201 119.018 225.982 119.093C225.966 119.1 225.924 119.082 225.914 119.068C225.844 118.92 225.773 118.77 225.7 118.614ZM223.976 119.241C224.017 119.409 224.052 119.571 224.091 119.736C224.103 119.782 224.071 119.793 224.039 119.806C223.833 119.88 223.63 119.949 223.427 120.028C223.362 120.052 223.333 120.034 223.316 119.972C223.224 119.698 223.124 119.427 223.026 119.15C222.982 119.024 222.982 119.024 223.107 118.98C223.143 118.966 223.175 118.954 223.203 118.995C223.36 119.208 223.579 119.275 223.829 119.262C223.882 119.257 223.931 119.244 223.976 119.241ZM224.426 117.784C224.649 118.056 224.869 118.319 225.142 118.541C225.048 118.672 224.96 118.796 224.866 118.917C224.854 118.935 224.811 118.942 224.787 118.937C224.659 118.91 224.537 118.872 224.409 118.845C224.37 118.836 224.354 118.819 224.362 118.774C224.423 118.473 224.429 118.168 224.42 117.859C224.425 117.835 224.425 117.807 224.426 117.784ZM225.643 119.575C225.734 119.78 225.661 120.284 225.547 120.385C225.542 120.383 225.536 120.38 225.536 120.38C225.462 120.168 225.383 119.958 225.314 119.75C225.308 119.734 225.328 119.699 225.343 119.689C225.44 119.644 225.542 119.612 225.643 119.575ZM225.212 120.517C225.003 120.477 224.648 120.116 224.619 119.943C224.707 119.91 224.804 119.876 224.893 119.843C224.945 119.824 224.968 119.839 224.985 119.888C225.046 120.059 225.106 120.229 225.166 120.4C225.183 120.435 225.196 120.472 225.212 120.517ZM225.389 119.305C225.337 119.324 225.282 119.348 225.226 119.36C225.21 119.366 225.167 119.344 225.166 119.331C225.127 119.143 225.186 118.947 225.341 118.846C225.374 118.824 225.397 118.825 225.418 118.859C225.473 118.962 225.523 119.068 225.58 119.176C225.598 119.215 225.58 119.24 225.543 119.253C225.494 119.267 225.441 119.285 225.389 119.305ZM224.648 119.575C224.6 119.592 224.555 119.609 224.507 119.626C224.46 119.647 224.425 119.637 224.414 119.581C224.39 119.475 224.367 119.37 224.347 119.262C224.338 119.21 224.358 119.189 224.412 119.188C224.58 119.177 224.776 119.294 224.836 119.451C224.842 119.467 224.824 119.506 224.809 119.516C224.754 119.54 224.7 119.556 224.648 119.575Z" fill="#FFD500"/>
<path d="M208.263 170.807C203.963 174.523 197.241 173.669 193.248 168.9C189.256 164.131 189.506 157.252 193.806 153.536C198.107 149.82 204.829 150.673 208.822 155.443C212.814 160.212 212.564 167.091 208.263 170.807Z" fill="url(#paint5_radial_5_130)"/>
<defs>
<linearGradient id="paint0_linear_5_130" x1="301.374" y1="232.838" x2="81.1055" y2="153.489" gradientUnits="userSpaceOnUse">
<stop stop-color="#A5DEFF"/>
<stop offset="1" stop-color="#BDE7FF"/>
</linearGradient>
<linearGradient id="paint1_linear_5_130" x1="252.066" y1="207.221" x2="259.916" y2="275.672" gradientUnits="userSpaceOnUse">
<stop stop-color="white"/>
<stop offset="1" stop-color="#F5F5F5"/>
</linearGradient>
<linearGradient id="paint2_linear_5_130" x1="130.063" y1="194.253" x2="110.066" y2="260.107" gradientUnits="userSpaceOnUse">
<stop stop-color="white"/>
<stop offset="1" stop-color="#F9F9F9"/>
</linearGradient>
<linearGradient id="paint3_linear_5_130" x1="186.299" y1="228.907" x2="110.314" y2="279.731" gradientUnits="userSpaceOnUse">
<stop stop-color="white"/>
<stop offset="1" stop-color="#F5F5F5"/>
</linearGradient>
<radialGradient id="paint4_radial_5_130" cx="0" cy="0" r="1" gradientUnits="userSpaceOnUse" gradientTransform="translate(180.499 275.095) rotate(164.048) scale(41.9896 10.9831)">
<stop stop-color="#E8E8E8"/>
<stop offset="1" stop-color="#EFEFEF" stop-opacity="0.5"/>
</radialGradient>
<radialGradient id="paint5_radial_5_130" cx="0" cy="0" r="1" gradientUnits="userSpaceOnUse" gradientTransform="translate(201.035 162.171) rotate(50.0685) scale(11.2616 10.2898)">
<stop stop-color="#FFBBBB"/>
<stop offset="1" stop-color="#FFBBBB" stop-opacity="0"/>
</radialGradient>
</defs>
</svg>
