<svg width="374" height="380" viewBox="0 0 374 380" fill="none" xmlns="http://www.w3.org/2000/svg">
<path fill-rule="evenodd" clip-rule="evenodd" d="M77.379 122.3C93.8943 88.0294 124.507 72.7504 161.841 68.8552C198.015 65.0812 239.542 84.8696 265.449 110.782C289.939 135.278 316.861 160.715 316.713 195.656C316.554 233.129 295.44 267.851 264.697 288.554C234.438 308.931 196.03 312.263 161.841 299.949C129.34 288.242 97.8881 274.817 85.5411 242.089C73.3258 209.711 62.3619 153.461 77.379 122.3Z" fill="url(#paint0_linear_5_11)"/>
<path d="M193.68 290.044L192.813 320.575" stroke="#FF6B0A" stroke-width="3" stroke-linecap="round"/>
<path d="M178.483 328.969L194.547 320.075" stroke="#FF6B0A" stroke-width="3" stroke-linecap="round"/>
<path d="M188.296 330.587L195.222 320.514" stroke="#FF6B0A" stroke-width="3" stroke-linecap="round"/>
<path d="M174.168 321.976L192.915 319.851" stroke="#FF6B0A" stroke-width="3" stroke-linecap="round"/>
<path d="M141.443 256.557C152.361 298.505 196.636 355.122 286.389 245.996C233.489 222.146 130.44 190.867 141.443 256.557Z" fill="url(#paint1_linear_5_11)"/>
<path d="M181.364 163.508C189.681 143.225 177.898 135.338 170.967 133.93C165.769 137.451 147.262 144.493 156.412 144.493C165.561 144.493 162.996 157.17 160.57 163.508C115.656 225.2 141.856 259.637 155.372 269.144C170.967 262.806 196.959 248.228 176.166 240.622C150.174 231.115 170.967 188.861 181.364 163.508Z" fill="url(#paint2_linear_5_11)"/>
<path d="M225.318 298.114C225.267 303.779 212.15 308.251 196.019 308.103C179.888 307.955 166.852 303.243 166.903 297.578C166.953 291.914 180.071 287.442 196.202 287.59C212.332 287.738 225.368 292.45 225.318 298.114Z" fill="url(#paint3_radial_5_11)"/>
<path d="M210.574 300.099V324.936" stroke="#FF6B0A" stroke-width="3" stroke-linecap="round"/>
<path d="M193.933 333.923L209.997 325.029" stroke="#FF6B0A" stroke-width="3" stroke-linecap="round"/>
<path d="M203.745 335.542L210.672 325.468" stroke="#FF6B0A" stroke-width="3" stroke-linecap="round"/>
<path d="M189.618 326.931L208.365 324.806" stroke="#FF6B0A" stroke-width="3" stroke-linecap="round"/>
<path d="M211.107 186.841C147.274 207.791 160.484 228.936 175.068 236.89C179.274 243.823 192.494 234.519 198.578 229.001C198.69 225.674 200.798 217.81 208.337 212.964C215.876 208.118 213.703 206.099 211.674 205.695C222.235 196.696 216.439 197.293 212.221 198.717C246.026 180.1 223.007 182.679 211.107 186.841Z" fill="#D9D9D9"/>
<path d="M213.426 188.003C148.777 210.389 162.683 231.35 177.717 239.032C182.149 245.907 195.435 236.284 201.524 230.613C201.569 227.27 203.556 219.327 211.142 214.301C218.729 209.274 216.471 207.292 214.394 206.929C224.976 197.668 219.079 198.39 214.808 199.908C242.616 179.753 225.474 183.575 213.426 188.003Z" fill="#FAFAFA"/>
<path d="M145.245 159.72C164.785 170.668 173.856 164.281 175.948 159.72C190.216 151.1 186.906 121.681 162.48 121.681C138.054 121.681 120.819 146.035 145.245 159.72Z" fill="white"/>
<path d="M158.631 151.687L155.519 149.652C149.932 145.995 143.196 144.606 136.647 145.758C136.277 145.823 135.98 146.105 135.89 146.476L129.584 172.425C129.128 174.3 131.263 175.703 132.76 174.51L158.728 153.813C159.424 153.259 159.374 152.174 158.631 151.687Z" fill="#DF5B04"/>
<path d="M159.185 151.536L156.635 149.924C150.623 146.125 143.462 144.663 136.472 145.807C136.199 145.852 135.954 146.005 135.791 146.233L120.093 168.177C118.879 169.875 120.685 172.101 122.556 171.213L159.045 153.916C160.005 153.461 160.085 152.105 159.185 151.536Z" fill="#FF6B0A"/>
<path d="M136.684 141.628C138.071 141.628 139.195 140.486 139.195 139.077C139.195 137.668 138.071 136.526 136.684 136.526C135.297 136.526 134.173 137.668 134.173 139.077C134.173 140.486 135.297 141.628 136.684 141.628Z" fill="#797979"/>
<path d="M162.48 144.18C163.867 144.18 164.991 143.037 164.991 141.628C164.991 140.219 163.867 139.077 162.48 139.077C161.093 139.077 159.969 140.219 159.969 141.628C159.969 143.037 161.093 144.18 162.48 144.18Z" fill="#797979"/>
<path d="M144.282 107.212L144.851 104.165L180.704 111.073L177.62 127.599L176.36 127.357L146.459 123.524L141.766 120.692L143.91 109.203L143.734 109.194L143.76 107.209L144.282 107.212Z" fill="#0C0632"/>
<path d="M161.845 112.629C172.03 114.591 180.442 115.348 180.634 114.32C180.826 113.292 172.725 110.867 162.541 108.905C152.356 106.943 143.944 106.185 143.752 107.214C143.56 108.242 151.661 110.667 161.845 112.629Z" fill="#0C0632"/>
<path d="M141.342 120.664C129.127 121.38 117.532 137.442 168.488 128.964L141.342 120.664Z" fill="#0C0632"/>
<path d="M141.258 120.53C143.159 126.279 173.986 131.911 178.152 127.638L180.597 114.348C175.16 115.095 165.488 110.11 157.126 111.567L146.444 121.222L143.76 107.209L141.258 120.53Z" fill="#494600"/>
<path d="M162.382 109.713C172.281 111.62 180.461 112.333 180.653 111.304C180.845 110.276 172.976 107.896 163.078 105.989C153.179 104.082 144.999 103.369 144.807 104.398C144.615 105.426 152.484 107.806 162.382 109.713Z" fill="#0C0632"/>
<path d="M162.111 112.68C172.149 114.614 180.442 115.348 180.634 114.32C180.826 113.291 172.844 110.89 162.807 108.956C152.769 107.022 144.476 106.288 144.284 107.316C144.092 108.344 152.074 110.746 162.111 112.68Z" fill="#0C0632"/>
<path d="M148.222 109.34C148.276 109.411 148.323 109.465 148.36 109.524C148.679 110.009 148.806 110.481 148.713 111.05C148.674 111.291 148.606 111.53 148.552 111.766C148.504 111.974 148.457 112.178 148.412 112.388C148.401 112.442 148.386 112.462 148.324 112.449C148.195 112.414 148.068 112.434 147.974 112.538C147.888 112.628 147.87 112.739 147.904 112.852C147.938 112.969 148.024 113.042 148.133 113.086C148.188 113.106 148.232 113.097 148.28 113.055C148.65 112.746 148.935 112.373 149.149 111.942C149.325 111.583 149.428 111.198 149.544 110.821C149.611 110.607 149.687 110.392 149.747 110.176C149.786 110.039 149.835 109.915 149.913 109.797C149.992 109.679 150.093 109.582 150.222 109.508C150.283 109.642 150.303 109.784 150.283 109.923C150.262 110.054 150.224 110.186 150.184 110.31C150.141 110.445 150.079 110.573 150.03 110.701C149.897 111.042 149.761 111.382 149.639 111.726C149.44 112.302 149.394 112.892 149.51 113.491C149.524 113.57 149.568 113.608 149.641 113.626C149.822 113.675 150.003 113.586 150.062 113.419C150.117 113.263 150.03 113.073 149.86 113.003C149.799 112.977 149.803 112.954 149.829 112.904C149.958 112.646 150.084 112.381 150.208 112.121C150.354 111.827 150.48 111.526 150.707 111.282C151.007 110.96 151.34 110.792 151.768 110.694C151.799 110.688 151.83 110.683 151.875 110.674C151.863 110.707 151.855 110.729 151.847 110.752C151.341 112.186 150.856 113.562 150.351 114.997C150.322 115.079 150.322 115.079 150.245 115.051C149.955 114.945 149.661 114.838 149.371 114.733C149.319 114.714 149.292 114.72 149.263 114.768C149.04 115.131 148.727 115.385 148.321 115.513C148.237 115.541 148.154 115.587 148.071 115.624C147.974 115.371 147.789 115.152 147.73 114.876C147.681 114.649 147.659 114.419 147.694 114.189C147.7 114.137 147.683 114.114 147.639 114.099C147.342 113.99 147.048 113.883 146.75 113.774C146.699 113.756 146.681 113.737 146.702 113.678C147.21 112.235 147.699 110.848 148.207 109.406C148.203 109.396 148.208 109.381 148.222 109.34ZM148.313 110.118C148.304 110.119 148.293 110.115 148.285 110.116C148.275 110.142 148.266 110.169 148.257 110.194C148.013 110.888 147.788 111.525 147.543 112.219C147.503 112.334 147.503 112.334 147.62 112.376C147.665 112.393 147.69 112.39 147.717 112.349C147.81 112.227 147.934 112.156 148.079 112.134C148.141 112.122 148.16 112.092 148.171 112.037C148.228 111.769 148.283 111.496 148.351 111.232C148.419 110.956 148.431 110.734 148.381 110.453C148.364 110.337 148.335 110.231 148.313 110.118ZM151.335 111.23C151.327 111.227 151.325 111.222 151.317 111.22C151.285 111.241 151.253 111.263 151.224 111.286C151.002 111.457 150.823 111.588 150.694 111.838C150.532 112.156 150.378 112.476 150.22 112.795C150.197 112.837 150.197 112.87 150.232 112.913C150.328 113.027 150.381 113.159 150.381 113.313C150.38 113.384 150.416 113.414 150.518 113.43C150.58 113.44 150.574 113.388 150.586 113.355C150.834 112.651 151.063 112.001 151.312 111.293C151.324 111.272 151.332 111.251 151.335 111.23ZM147.974 113.371C147.957 113.361 147.936 113.349 147.913 113.331C147.7 113.196 147.561 113.015 147.572 112.747C147.573 112.711 147.564 112.69 147.529 112.682C147.504 112.672 147.478 112.663 147.452 112.654C147.415 112.641 147.396 112.65 147.382 112.687C147.284 112.965 147.185 113.247 147.091 113.527C147.086 113.541 147.103 113.585 147.118 113.591C147.315 113.667 147.517 113.74 147.716 113.808C147.731 113.814 147.77 113.799 147.778 113.785C147.843 113.649 147.907 113.513 147.974 113.371ZM149.546 113.943C149.508 114.097 149.477 114.244 149.441 114.394C149.43 114.436 149.459 114.447 149.489 114.457C149.676 114.525 149.861 114.588 150.047 114.66C150.105 114.682 150.132 114.667 150.148 114.61C150.231 114.36 150.323 114.113 150.412 113.861C150.452 113.745 150.452 113.745 150.338 113.704C150.305 113.692 150.276 113.681 150.25 113.719C150.107 113.913 149.908 113.974 149.68 113.962C149.632 113.957 149.586 113.945 149.546 113.943ZM149.136 112.614C148.932 112.862 148.732 113.103 148.482 113.305C148.569 113.424 148.649 113.537 148.734 113.647C148.745 113.664 148.784 113.67 148.807 113.666C148.923 113.64 149.035 113.606 149.151 113.581C149.187 113.573 149.201 113.558 149.194 113.517C149.138 113.242 149.133 112.964 149.141 112.682C149.136 112.66 149.137 112.635 149.136 112.614ZM148.026 114.247C147.943 114.435 148.009 114.894 148.113 114.986C148.118 114.984 148.123 114.982 148.123 114.982C148.191 114.788 148.263 114.597 148.326 114.406C148.331 114.392 148.313 114.36 148.3 114.352C148.211 114.31 148.117 114.28 148.026 114.247ZM148.419 115.105C148.61 115.071 148.933 114.741 148.96 114.583C148.879 114.554 148.791 114.521 148.71 114.492C148.662 114.475 148.641 114.488 148.625 114.532C148.57 114.688 148.516 114.843 148.461 115C148.445 115.031 148.433 115.065 148.419 115.105ZM148.257 114.001C148.305 114.018 148.355 114.041 148.406 114.051C148.42 114.056 148.46 114.038 148.46 114.024C148.496 113.854 148.443 113.675 148.302 113.582C148.271 113.562 148.25 113.563 148.231 113.594C148.181 113.689 148.135 113.785 148.083 113.883C148.067 113.919 148.084 113.942 148.117 113.954C148.162 113.966 148.21 113.984 148.257 114.001ZM148.933 114.247C148.977 114.263 149.018 114.277 149.062 114.294C149.104 114.313 149.137 114.304 149.146 114.253C149.168 114.156 149.19 114.06 149.208 113.961C149.216 113.915 149.198 113.895 149.148 113.894C148.995 113.884 148.816 113.991 148.761 114.134C148.756 114.149 148.773 114.184 148.786 114.193C148.836 114.215 148.885 114.23 148.933 114.247Z" fill="#FFD500"/>
<path d="M163.872 160.96C167.793 164.348 173.923 163.57 177.563 159.221C181.203 154.873 180.975 148.601 177.054 145.212C173.133 141.824 167.003 142.603 163.363 146.951C159.723 151.3 159.951 157.572 163.872 160.96Z" fill="url(#paint4_radial_5_11)"/>
<path d="M276.383 212.408C290.53 195.562 283.586 165.944 260.873 146.255C238.161 126.565 208.281 124.26 194.135 141.106C179.988 157.952 186.932 187.57 209.645 207.259C232.357 226.949 262.237 229.254 276.383 212.408Z" fill="#C4C4C4"/>
<path d="M279.541 208.648C291.944 193.879 283.586 165.944 260.873 146.255C238.161 126.565 209.695 122.576 197.293 137.345C184.89 152.115 193.248 180.049 215.961 199.738C238.673 219.428 267.139 223.417 279.541 208.648Z" fill="white"/>
<path d="M225.282 174.318L258.258 146.855L239.337 184.204C229.39 185.523 225.823 178.163 225.282 174.318Z" fill="#C4C4C4"/>
<path d="M268.198 155.143C271.486 151.227 269.872 144.341 264.592 139.764C259.312 135.186 252.365 134.65 249.076 138.567C245.788 142.483 247.402 149.369 252.682 153.946C257.962 158.523 264.909 159.059 268.198 155.143Z" fill="#C4C4C4"/>
<path d="M268.932 154.269C271.815 150.836 269.872 144.341 264.592 139.764C259.312 135.187 252.694 134.259 249.81 137.693C246.927 141.126 248.87 147.62 254.15 152.198C259.43 156.775 266.048 157.703 268.932 154.269Z" fill="white"/>
<path d="M256.096 146.11L265.826 138.067L260.243 149.006C257.308 149.392 256.255 147.237 256.096 146.11Z" fill="#C4C4C4"/>
<path d="M238.136 197.826C174.303 218.775 187.513 239.921 202.097 247.875C206.303 254.807 219.523 245.504 225.608 239.986C225.719 236.66 227.827 228.796 235.366 223.949C242.906 219.104 240.732 217.084 238.703 216.68C249.264 207.681 243.468 208.279 239.251 209.701C273.056 191.085 250.037 193.665 238.136 197.826Z" fill="#D9D9D9"/>
<path d="M240.456 198.989C175.807 221.374 189.712 242.335 204.746 250.018C209.178 256.892 222.464 247.269 228.554 241.599C228.599 238.256 230.585 230.312 238.172 225.286C245.758 220.26 243.501 218.277 241.424 217.915C252.005 208.653 246.108 209.375 241.837 210.894C269.646 190.739 252.503 194.559 240.456 198.989Z" fill="#F8F8F8"/>
<defs>
<linearGradient id="paint0_linear_5_11" x1="75.7324" y1="124.729" x2="300.025" y2="252.179" gradientUnits="userSpaceOnUse">
<stop stop-color="#A5DEFF"/>
<stop offset="1" stop-color="#BDE7FF"/>
</linearGradient>
<linearGradient id="paint1_linear_5_11" x1="174.142" y1="261.201" x2="290.447" y2="243.91" gradientUnits="userSpaceOnUse">
<stop stop-color="#F2F2F2"/>
<stop offset="1" stop-color="white"/>
</linearGradient>
<linearGradient id="paint2_linear_5_11" x1="159.814" y1="133.93" x2="159.814" y2="269.144" gradientUnits="userSpaceOnUse">
<stop stop-color="white"/>
<stop offset="1" stop-color="#F2F2F2"/>
</linearGradient>
<radialGradient id="paint3_radial_5_11" cx="0" cy="0" r="1" gradientUnits="userSpaceOnUse" gradientTransform="translate(196.11 297.846) rotate(0.525998) scale(29.2087 10.2568)">
<stop stop-color="#D7D7D7"/>
<stop offset="1" stop-color="#D7D7D7" stop-opacity="0"/>
</radialGradient>
<radialGradient id="paint4_radial_5_11" cx="0" cy="0" r="1" gradientUnits="userSpaceOnUse" gradientTransform="translate(170.463 153.086) rotate(129.932) scale(10.2681 9.38201)">
<stop stop-color="#FFBBBB"/>
<stop offset="1" stop-color="#FFBBBB" stop-opacity="0"/>
</radialGradient>
</defs>
</svg>
