<svg width="32" height="54" viewBox="0 0 32 54" fill="none" xmlns="http://www.w3.org/2000/svg">
<g clip-path="url(#clip0_5_80)">
<path d="M29.046 5.08889C20.8276 13.1988 22.092 25.8142 22.1494 26.3549L22.2644 27.3762L23.2414 27.4963C23.5287 27.5564 25.1954 27.9168 24.9655 30.6201C24.7931 32.963 22.2644 33.3234 21.2299 33.4436C20.3678 32.2421 17.5517 27.256 17.2644 12.9585C17.2644 12.2376 17.2644 11.5168 17.2644 10.7959C17.2644 10.7959 17.4943 5.68963 17.7241 3.52698L16.0575 -0.197571L14.3333 3.40684C14.5632 5.56948 14.7931 10.6757 14.7931 10.6757C14.7931 11.3966 14.7931 12.1175 14.7931 12.8384C14.5057 27.1359 11.6897 32.182 10.8276 33.3234C9.73563 33.2634 7.26437 32.8428 7.09195 30.5C6.86207 27.7967 8.52874 27.4362 8.81609 27.3762L9.7931 27.256L9.90805 26.2348C9.96552 25.6941 11.2299 13.0787 3.01149 4.96875L1 3.10647V41.974H9.33333C10.023 47.681 15.023 51.9462 15.2529 52.1264L16 52.7872L16.7471 52.1264C16.977 51.9462 22.0345 47.681 22.6667 41.974H31V3.10647L29.046 5.08889ZM7.6092 25.2135C6.4023 25.6941 4.96552 26.9556 4.73563 29.3586H3.41379V9.29404C7.6092 15.1812 7.66667 22.6904 7.6092 25.2135ZM9.16092 38.2495L9.21839 39.4509H3.41379V31.8216H4.90805C5.54023 34.2245 7.6092 35.2458 9.50575 35.6663C9.16092 36.8678 9.16092 38.0692 9.16092 38.2495ZM11.5747 38.1894C11.5747 37.5286 11.6322 36.5674 11.9195 35.9667C14.046 36.4472 14.6207 38.2495 14.7931 39.511H11.6322L11.5747 38.1894ZM14.8506 48.1616C13.6437 46.6597 12.2069 44.4971 11.8046 41.974H14.8506V48.1616ZM16.3448 35.4861C16.2299 35.6062 16.1149 35.7864 16 35.9667C15.8851 35.7864 15.7701 35.6663 15.6552 35.4861C15.023 34.7652 14.2759 34.1645 13.4138 33.804C14.2184 32.3623 15.1954 29.9593 16 25.9344C16.8046 29.9593 17.7816 32.4223 18.5862 33.804C17.7241 34.1645 16.977 34.7051 16.3448 35.4861ZM17.2069 48.1015V41.974H20.2529C19.908 44.437 18.4713 46.5997 17.2069 48.1015ZM20.4828 38.1894L20.4253 39.4509H17.2644C17.4368 38.1894 18.0115 36.3872 20.1379 35.9066C20.4253 36.5674 20.4828 37.5286 20.4828 38.1894ZM24.4483 25.2135C24.3333 22.7505 24.4483 15.2413 28.6437 9.29404V29.3586H27.3218C27.092 26.8956 25.7126 25.6941 24.4483 25.2135ZM22.8391 39.4509L22.8966 38.2495C22.8966 38.0692 22.954 36.8678 22.6092 35.6663C24.4483 35.3059 26.5172 34.2245 27.2069 31.8216H28.7011V39.4509H22.8391Z" fill="#F2CD13"/>
</g>
<defs>
<clipPath id="clip0_5_80">
<rect width="32" height="52.8835" fill="white" transform="translate(0 0.169891)"/>
</clipPath>
</defs>
</svg>
